<?xml version="1.0" standalone="no"?>
<!DOCTYPE svg PUBLIC "-//W3C//DTD SVG 20010904//EN"
 "http://www.w3.org/TR/2001/REC-SVG-20010904/DTD/svg10.dtd">
<svg version="1.0" xmlns="http://www.w3.org/2000/svg"
 width="613.000000pt" height="529.000000pt" viewBox="0 0 613.000000 529.000000"
 preserveAspectRatio="xMidYMid meet">

<g transform="translate(0.000000,529.000000) scale(0.100000,-0.100000)"
fill="#000000" stroke="none">
<path d="M3986 5275 c-54 -19 -106 -64 -133 -115 -22 -41 -23 -53 -23 -262 0
-120 -2 -218 -5 -218 -3 0 -27 13 -53 30 -63 39 -170 83 -258 106 -99 26 -321
26 -424 0 -225 -57 -427 -195 -548 -374 l-43 -62 -293 0 -294 0 -17 53 c-53
164 -176 307 -330 382 -86 42 -173 65 -240 64 -49 -2 -48 -2 17 -9 142 -17
276 -81 377 -179 130 -127 193 -273 194 -451 1 -119 -17 -198 -65 -294 -136
-272 -441 -411 -733 -336 -63 16 -81 18 -90 8 -71 -80 -276 -331 -272 -334 2
-3 68 71 146 164 l142 170 47 -15 c26 -8 85 -17 132 -21 l85 -7 5 -156 c6
-171 12 -192 73 -229 27 -17 51 -20 144 -20 l113 0 2 -182 3 -183 36 55 c19
30 68 112 108 183 l74 127 386 0 c351 0 389 2 421 18 l35 18 55 -37 c49 -32
76 -68 244 -313 103 -153 190 -275 193 -273 2 3 -12 97 -31 209 -20 113 -36
207 -36 209 0 3 60 3 134 1 205 -6 345 30 520 132 87 51 229 190 286 279 36
56 47 67 64 63 12 -3 31 -6 44 -6 16 0 22 -6 22 -22 0 -20 -31 -201 -46 -267
-5 -22 -3 -23 11 -11 9 7 14 19 11 26 -4 10 25 189 46 285 2 11 -9 14 -49 13
-29 -1 -53 0 -53 3 0 2 9 21 20 43 11 21 32 78 47 127 24 79 27 104 27 248 1
138 -2 171 -22 240 -50 176 -174 371 -296 466 l-56 44 0 218 c0 237 5 265 58
320 15 16 45 39 67 50 39 22 49 22 456 22 l416 0 49 -30 c30 -19 60 -49 79
-79 l30 -49 3 -364 4 -363 -59 -58 c-107 -105 -155 -219 -154 -368 0 -130 37
-222 142 -356 26 -32 21 -41 -44 -78 l-52 -30 -232 0 -233 0 -34 -47 c-56 -77
-158 -244 -152 -250 2 -3 47 58 98 136 l93 140 228 1 c248 0 266 3 328 58 l35
31 13 -22 c44 -72 264 -388 267 -384 2 2 -12 70 -31 151 -19 81 -35 151 -35
156 0 6 24 7 59 4 230 -24 464 139 523 365 79 303 -129 599 -440 627 -80 7
-187 -13 -258 -49 l-49 -25 3 268 c4 325 -6 453 -42 514 -27 47 -84 91 -137
106 -19 6 -198 10 -424 10 -305 -1 -398 -4 -429 -15z m-463 -474 c388 -102
664 -438 684 -836 13 -272 -88 -520 -290 -711 -94 -88 -175 -140 -290 -185
-129 -49 -213 -62 -369 -57 -85 3 -138 2 -138 -4 0 -6 14 -91 30 -190 17 -99
29 -182 27 -184 -2 -3 -84 112 -181 253 -135 197 -188 267 -226 295 l-49 38
22 37 c22 38 22 40 22 523 0 471 -1 486 -21 520 -33 57 -77 80 -150 80 -39 0
-64 4 -64 11 0 6 13 29 29 52 136 199 367 339 626 381 65 10 261 -3 338 -23z
m1843 -352 c255 -46 438 -301 396 -551 -43 -257 -289 -447 -531 -410 -34 5
-63 6 -65 3 -2 -3 11 -68 29 -143 17 -76 31 -138 29 -138 -2 0 -65 91 -140
203 -76 111 -155 222 -175 247 -21 25 -53 77 -70 115 -28 61 -33 83 -37 172
-5 109 6 159 56 258 33 67 134 163 206 198 59 29 156 55 212 56 17 1 57 -4 90
-10z m-2689 -99 c64 -39 63 -28 63 -570 0 -549 3 -528 -70 -569 -37 -20 -50
-21 -428 -21 l-390 0 -78 -137 c-44 -76 -84 -150 -91 -164 -6 -15 -17 -30 -23
-34 -10 -6 -12 30 -8 164 l4 171 -121 0 c-110 0 -125 2 -156 23 -53 36 -59 56
-59 217 l0 146 71 12 c134 23 260 93 362 202 133 140 202 361 168 538 l-8 42
366 0 c345 0 368 -1 398 -20z"/>
<path d="M2902 3910 c-28 -26 -30 -90 -4 -112 28 -26 59 -30 90 -14 49 25 57
82 17 121 -30 31 -73 32 -103 5z"/>
<path d="M3242 3907 c-61 -65 8 -163 86 -123 49 25 57 82 17 121 -31 32 -74
33 -103 2z"/>
<path d="M3582 3907 c-60 -64 10 -163 87 -123 50 26 58 92 15 125 -35 28 -75
27 -102 -2z"/>
<path d="M5010 3970 c-24 -24 -25 -43 -4 -64 18 -19 55 -21 72 -4 18 18 15 53
-6 71 -24 22 -38 21 -62 -3z"/>
<path d="M5256 3974 c-19 -18 -21 -55 -4 -72 17 -17 54 -15 72 4 21 21 20 40
-4 64 -24 24 -43 25 -64 4z"/>
<path d="M5499 3971 c-20 -16 -22 -23 -14 -47 18 -51 95 -42 95 11 0 22 -28
55 -47 55 -6 0 -21 -9 -34 -19z"/>
<path d="M1110 4864 c-216 -58 -381 -213 -456 -429 -25 -72 -28 -94 -28 -210
0 -116 3 -138 26 -203 37 -104 83 -176 158 -252 l66 -67 -82 -224 c-46 -123
-83 -230 -83 -238 -1 -11 4 -9 19 4 12 10 18 25 15 32 -2 8 29 108 70 222 l75
208 -74 75 c-130 132 -193 301 -183 483 19 316 258 568 573 604 l69 8 -55 1
c-30 0 -80 -6 -110 -14z"/>
<path d="M970 4252 c-27 -9 -50 -35 -50 -57 0 -49 79 -78 107 -39 33 45 -6
113 -57 96z"/>
<path d="M1252 4249 c-34 -13 -48 -53 -29 -82 33 -50 100 -37 105 21 5 52 -29
78 -76 61z"/>
<path d="M1538 4246 c-34 -17 -33 -85 1 -102 30 -16 62 -4 80 28 13 23 13 29
-1 51 -20 30 -49 38 -80 23z"/>
<path d="M4687 3033 c-3 -4 -8 -25 -12 -45 -5 -28 -13 -38 -33 -43 -15 -4 -33
-11 -39 -17 -16 -13 -17 -62 -3 -89 8 -14 4 -54 -14 -151 -38 -206 -39 -212
-22 -251 13 -33 61 -76 72 -65 2 3 -7 13 -22 22 -58 39 -60 81 -15 315 17 86
18 111 9 146 -14 52 -1 75 43 75 25 0 29 4 29 28 0 15 5 34 10 42 16 25 12
-80 -6 -141 -20 -67 -16 -332 6 -352 10 -10 11 -8 5 8 -4 11 -9 81 -12 155 -5
109 -2 144 11 183 17 51 21 153 7 176 -5 7 -11 9 -14 4z"/>
<path d="M3967 2904 c-12 -15 -40 -44 -62 -65 -33 -32 -40 -44 -40 -78 0 -27
8 -50 23 -68 46 -58 55 -75 55 -103 0 -16 5 -27 10 -23 18 11 38 75 32 104 -8
37 18 51 41 23 14 -18 15 -18 30 4 19 26 84 31 104 7 7 -8 22 -15 33 -15 18 0
19 -4 13 -46 -7 -58 -20 -74 -57 -74 -26 0 -59 -22 -59 -40 0 -5 -3 -16 -7
-26 -4 -12 -3 -15 5 -10 7 4 12 16 12 26 0 23 28 40 64 40 37 0 56 43 56 129
0 61 -3 74 -25 97 l-25 26 20 26 c32 39 26 60 -17 67 -21 3 -57 10 -80 16 -72
16 -102 12 -126 -17z m195 -116 c-7 -7 -12 -22 -12 -35 0 -20 -5 -23 -36 -23
-33 0 -36 2 -30 23 3 12 6 28 6 35 0 7 15 12 42 12 33 0 39 -3 30 -12z m40
-32 c13 -29 5 -56 -16 -56 -17 0 -31 42 -22 65 8 22 25 18 38 -9z"/>
<path d="M512 2894 c-18 -9 -44 -30 -58 -47 -24 -28 -25 -34 -18 -108 l7 -78
-42 -41 c-47 -46 -49 -60 -21 -121 11 -24 20 -53 20 -63 0 -10 -27 -44 -59
-75 -71 -67 -86 -110 -78 -215 7 -80 48 -174 95 -220 l30 -28 7 79 c3 43 7 89
8 103 2 19 12 7 51 -59 69 -117 113 -161 160 -161 41 0 158 28 250 60 33 11
61 18 64 15 2 -2 -10 -18 -27 -36 -30 -30 -32 -30 -56 -15 -14 9 -25 12 -25 7
0 -16 39 -33 61 -26 11 4 31 24 45 45 25 38 27 39 102 45 167 13 203 33 108
60 -35 10 -56 22 -56 31 0 15 -35 11 -72 -7 -9 -5 -19 -9 -21 -9 -10 0 37 136
55 159 24 32 24 93 -1 115 -19 17 -19 18 1 52 37 63 -6 58 -49 -6 -17 -24 -23
-47 -23 -88 0 -45 -7 -67 -37 -121 l-38 -66 -6 96 c-4 75 -10 103 -28 132 -12
20 -27 37 -33 37 -6 0 -4 -8 5 -18 34 -37 47 -90 47 -187 0 -52 3 -95 8 -95 4
0 27 38 50 85 31 62 42 97 42 131 0 48 17 91 46 115 16 13 16 12 0 -20 -17
-32 -17 -34 3 -55 26 -28 27 -73 2 -100 -10 -12 -29 -56 -41 -98 -13 -43 -29
-79 -38 -83 -8 -3 -72 -10 -141 -15 -69 -6 -137 -12 -151 -15 -24 -5 -30 5
-101 153 -45 92 -91 171 -110 191 -21 21 -29 36 -22 38 7 3 36 16 65 31 39 20
54 34 61 57 11 40 0 134 -19 163 -14 22 -14 25 9 46 13 12 29 31 35 41 10 19
12 19 46 2 20 -9 54 -20 76 -23 37 -6 40 -9 40 -38 0 -50 -20 -107 -46 -133
-18 -18 -24 -35 -24 -68 0 -32 4 -45 14 -45 8 0 21 -6 28 -12 7 -7 20 -14 28
-15 8 -1 24 -3 35 -5 19 -3 20 2 18 77 -1 46 -11 107 -22 143 l-19 63 21 49
c21 50 21 50 1 97 -28 69 -85 106 -167 110 -44 3 -72 -1 -95 -13z m-40 -625
c20 -30 60 -106 89 -169 29 -63 56 -119 61 -124 13 -16 284 14 366 39 39 13
72 19 72 15 0 -9 5 -11 80 -31 41 -11 43 -12 20 -19 -14 -4 -70 -10 -125 -14
-76 -5 -130 -17 -225 -48 -74 -24 -147 -41 -178 -42 -65 -1 -78 11 -167 155
-98 159 -125 247 -89 297 14 21 18 22 37 9 12 -7 39 -38 59 -68z"/>
<path d="M5013 2834 l-62 -15 4 -104 c5 -136 26 -180 90 -187 24 -2 31 -9 36
-33 6 -29 6 -29 8 8 1 36 0 37 -32 37 -57 0 -88 53 -88 153 0 32 2 61 4 64 3
2 19 -5 36 -18 26 -19 38 -21 90 -16 37 4 62 3 66 -4 4 -5 1 -31 -6 -57 -10
-41 -9 -52 5 -80 9 -18 21 -32 26 -32 6 0 10 -21 11 -47 0 -27 3 -42 6 -35 3
7 23 12 50 12 l45 0 -4 98 c-3 82 -8 107 -32 155 -48 100 -128 132 -253 101z"/>
<path d="M4360 2535 c-19 -20 -36 -31 -38 -25 -2 5 -10 10 -18 10 -12 0 -14
-15 -12 -77 2 -43 0 -116 -4 -163 -6 -71 -5 -77 3 -35 6 28 11 98 12 157 1 87
4 105 15 96 10 -9 22 -2 52 27 22 22 40 33 40 26 0 -6 -13 -44 -30 -83 -27
-64 -30 -79 -28 -172 l2 -101 6 110 c5 91 11 120 33 168 46 98 30 127 -33 62z"/>
<path d="M1470 2382 c-56 -30 -87 -85 -109 -189 -24 -111 -51 -166 -126 -258
-32 -38 -67 -90 -78 -114 -33 -74 -34 -200 -2 -283 7 -16 1 -17 -71 -11 l-77
6 7 -93 c4 -52 12 -101 17 -109 8 -13 9 -11 5 9 -2 14 -8 60 -11 103 l-7 78
78 -6 c600 -49 956 -181 1063 -397 17 -34 31 -73 31 -88 0 -50 -32 -120 -74
-163 -73 -76 -162 -93 -536 -106 -126 -4 -180 -9 -123 -9 97 -2 102 -3 106
-24 l4 -23 2 23 c1 19 7 22 41 22 l41 0 -33 -60 -33 -59 -6 37 c-6 34 -6 33
-8 -16 -1 -47 -15 -78 -133 -298 -122 -228 -131 -249 -121 -275 l11 -29 -154
0 c-85 0 -154 3 -154 8 0 9 37 213 51 279 7 37 16 54 30 58 12 4 19 16 19 33
0 15 35 95 78 177 l78 150 40 5 39 5 -52 7 c-29 4 -65 13 -80 21 l-27 15 32
28 c17 16 32 36 32 46 0 54 -142 48 -219 -9 -60 -46 -109 -191 -112 -333 -1
-55 -4 -46 -14 60 -23 223 -50 336 -98 404 -19 27 -20 48 -25 345 -2 174 -8
332 -12 351 -4 21 -6 -13 -4 -85 2 -66 6 -222 8 -348 5 -222 5 -227 -14 -217
-11 6 -22 23 -26 38 -3 15 -22 83 -42 152 -25 85 -38 155 -42 220 l-6 95 -2
-87 c-2 -74 4 -106 38 -225 22 -76 40 -145 40 -154 0 -14 -9 -16 -63 -12 -69
6 -164 -15 -191 -42 -13 -13 -18 -6 -44 63 -49 128 -67 222 -66 362 0 83 6
148 17 194 18 72 16 107 -2 39 -22 -82 -33 -201 -27 -294 10 -146 38 -248 108
-388 l61 -124 -63 -127 c-50 -101 -61 -130 -53 -146 14 -26 -124 -355 -167
-399 -17 -17 -30 -35 -30 -41 0 -11 107 -86 172 -121 50 -27 108 -31 108 -8 0
9 -12 20 -27 26 -16 6 -35 14 -43 19 -22 10 -60 70 -60 94 0 23 147 286 160
286 5 0 10 -18 12 -41 3 -36 8 -44 44 -64 22 -13 66 -28 98 -35 45 -9 56 -15
52 -28 -2 -9 -10 -50 -17 -90 -12 -73 -16 -77 -56 -66 -21 6 -23 13 -26 98 -2
70 -3 59 -5 -49 -1 -77 2 -145 6 -152 11 -17 376 -30 386 -14 6 9 118 12 455
10 329 -1 454 2 470 10 31 17 61 70 60 106 -1 29 -1 29 -8 -5 -15 -71 -43
-100 -100 -100 -24 0 -31 4 -31 19 0 11 -4 22 -9 25 -4 3 -11 24 -15 47 -5 32
-2 48 14 74 l21 34 42 -19 42 -19 12 22 c11 21 12 20 16 -13 3 -29 4 -26 6 15
2 60 10 95 22 95 5 0 9 -17 9 -37 0 -21 3 -55 6 -76 6 -35 8 -37 46 -37 36 0
39 -2 33 -21 -5 -15 -4 -19 4 -15 6 4 11 13 11 21 0 7 8 16 18 18 9 3 -9 5
-40 6 l-57 1 -6 52 c-3 29 -10 87 -14 128 -7 60 -9 66 -10 30 -1 -25 -8 -56
-15 -69 -12 -21 -14 -12 -24 90 -25 241 -26 267 -11 285 13 16 15 14 20 -17 6
-31 6 -30 8 14 0 26 -2 47 -5 47 -3 0 -14 -10 -25 -22 l-19 -23 2 35 c2 23 8
35 18 35 24 -1 123 44 147 67 18 16 24 18 27 7 15 -44 166 -587 166 -597 0
-14 -55 -38 -108 -48 -20 -4 -31 -9 -24 -11 6 -3 12 -9 12 -14 0 -12 72 -79
85 -78 6 0 -9 17 -32 37 -24 21 -43 40 -43 43 0 4 27 16 60 28 32 12 61 25 64
29 2 4 -24 110 -59 237 l-64 230 30 67 c36 83 37 127 4 166 -19 23 -25 41 -25
78 -1 123 -105 243 -292 335 l-67 33 16 30 c24 47 19 118 -21 273 -21 79 -38
165 -40 193 -1 33 -9 60 -24 79 -12 17 -22 44 -22 61 0 29 -2 30 -44 30 l-44
0 19 49 c24 66 28 176 6 218 -38 73 -145 105 -217 65z m210 -157 c0 -19 -5
-25 -21 -25 -15 0 -19 4 -15 16 3 9 6 20 6 25 0 5 7 9 15 9 9 0 15 -9 15 -25z
m-4 -50 c11 -28 -7 -88 -36 -117 -16 -15 -24 -28 -19 -28 5 0 9 -25 9 -56 0
-69 12 -94 48 -94 42 0 66 -48 73 -145 l5 -80 2 86 c2 66 -2 89 -13 99 -8 7
-19 26 -24 44 -5 17 -12 39 -16 49 -6 15 -4 17 18 12 19 -5 26 -3 29 12 2 13
8 8 22 -20 10 -22 15 -49 12 -62 -4 -14 11 -89 35 -177 45 -167 50 -228 25
-276 -9 -18 -18 -32 -20 -32 -2 0 -32 11 -67 24 -35 13 -108 34 -161 46 l-97
22 31 22 c50 34 70 81 64 151 -3 33 -8 116 -12 185 -6 114 -4 135 21 238 23
95 30 112 46 112 11 0 22 -7 25 -15z m64 -157 c0 -7 -3 -23 -6 -36 -6 -19 -11
-22 -35 -17 -32 7 -36 -2 -14 -31 21 -28 18 -44 -9 -44 -29 0 -36 16 -36 86
l0 54 50 0 c33 0 50 -4 50 -12z m-1013 -969 c72 -23 120 -119 147 -299 21
-136 30 -270 18 -270 -5 0 -23 -3 -39 -6 -28 -6 -30 -3 -87 106 -32 61 -60
109 -63 106 -3 -3 20 -52 51 -110 l57 -106 -55 0 -56 0 0 -35 0 -35 58 -2 c42
-1 47 -2 20 -5 -34 -4 -38 -7 -38 -34 0 -27 -2 -29 -27 -23 -64 14 -152 46
-163 59 -8 10 -11 55 -7 152 2 76 3 118 1 93 -2 -25 -6 -69 -10 -99 l-6 -53
-35 33 c-19 19 -46 53 -59 75 l-24 41 64 123 c54 104 65 119 74 104 6 -10 13
-16 16 -13 3 3 -7 23 -22 45 -16 21 -39 56 -51 76 l-22 37 38 -11 c52 -14 89
-52 109 -112 17 -52 43 -93 29 -46 -15 52 -48 119 -65 135 -10 9 -35 23 -55
29 -20 7 -37 17 -38 22 -1 4 23 16 53 26 57 18 124 17 187 -3z m1498 -129 c8
-16 15 -36 15 -44 0 -18 -52 -147 -57 -142 -2 2 -12 33 -23 70 l-19 66 22 40
c26 48 41 50 62 10z m-985 -31 c0 -6 -17 -31 -39 -57 -46 -55 -137 -207 -177
-292 -23 -50 -32 -60 -52 -60 l-25 0 6 93 c6 108 36 213 74 258 15 17 45 40
68 50 44 20 145 26 145 8z m18 -119 c8 0 -16 -58 -64 -150 l-78 -150 -48 0
c-36 0 -48 4 -48 15 0 22 42 104 111 217 l60 96 27 -14 c15 -8 33 -14 40 -14z
m670 -47 c3 -38 -5 -54 -97 -192 -56 -83 -101 -154 -101 -159 0 -4 14 -21 30
-37 17 -16 30 -34 30 -39 -1 -19 -44 -61 -83 -78 -61 -29 -59 -44 13 -110 l65
-58 -102 0 -102 0 19 34 c20 33 20 35 1 272 l-19 239 40 77 40 77 51 6 c58 6
161 12 192 11 16 -1 21 -9 23 -43z m30 -265 c15 -149 16 -181 5 -203 -8 -14
-16 -25 -19 -25 -21 0 -128 68 -163 104 l-41 42 97 143 c54 79 99 138 101 130
1 -8 10 -94 20 -191z m-1455 22 c-3 -11 -145 -255 -153 -263 -9 -10 -60 20
-60 35 0 5 30 81 66 169 l66 159 42 -47 c22 -26 40 -50 39 -53z m1087 -130
c18 -246 17 -250 -15 -278 -25 -21 -34 -22 -133 -20 -156 4 -156 -3 -1 286 85
160 126 226 130 214 3 -9 12 -100 19 -202z m-702 43 c-10 -2 -28 -2 -40 0 -13
2 -5 4 17 4 22 1 32 -1 23 -4z m155 0 c-7 -2 -19 -2 -25 0 -7 3 -2 5 12 5 14
0 19 -2 13 -5z m-278 -208 c8 -54 12 -101 10 -103 -2 -2 -18 6 -35 18 -30 21
-32 25 -25 69 11 75 28 147 32 131 1 -8 9 -60 18 -115z m1084 76 c11 -7 10
-14 -9 -40 -18 -27 -21 -40 -15 -77 4 -27 2 -44 -4 -44 -15 0 -48 47 -61 85
-10 31 -9 38 16 69 28 35 31 35 73 7z"/>
<path d="M553 770 c0 -41 2 -58 4 -37 2 20 2 54 0 75 -2 20 -4 3 -4 -38z"/>
<path d="M3140 2358 c-26 -29 -25 -50 5 -86 29 -35 31 -45 10 -62 -16 -14 -21
-65 -6 -74 16 -10 18 -80 3 -103 -33 -53 28 -108 92 -83 35 13 36 13 36 -4 0
-8 -11 -27 -24 -41 -16 -17 -24 -38 -24 -58 1 -18 -11 -65 -25 -105 -32 -89
-47 -175 -46 -262 2 -56 3 -51 10 38 6 75 19 133 44 209 20 59 33 114 29 127
-3 15 2 28 15 40 21 19 21 19 21 -11 0 -17 -7 -47 -15 -66 -11 -28 -15 -76
-14 -204 0 -92 4 -177 9 -188 6 -12 7 48 4 151 -4 147 -2 178 13 215 10 26 17
72 17 114 1 60 5 75 27 105 38 49 44 76 25 105 -23 35 -52 31 -102 -15 -24
-22 -48 -40 -53 -40 -17 0 -23 40 -9 70 14 33 19 35 93 45 28 3 63 8 79 11 29
6 29 6 23 -33 -4 -25 -1 -48 8 -67 8 -15 15 -44 15 -64 0 -49 12 -33 15 20 1
24 12 70 24 102 26 69 22 112 -13 153 -20 23 -34 28 -94 33 -49 5 -78 13 -97
28 -35 28 -69 28 -95 0z m161 -125 c7 -16 15 -31 17 -34 1 -4 -25 -10 -59 -14
-64 -8 -79 -1 -79 37 0 12 13 20 43 26 62 14 63 14 78 -15z"/>
<path d="M4568 2307 c-37 -23 -73 -49 -80 -56 -14 -16 -16 -17 100 54 34 21
62 39 62 41 0 9 -19 0 -82 -39z"/>
<path d="M4592 2238 c-50 -40 -89 -74 -87 -77 5 -4 88 58 150 113 68 60 32 40
-63 -36z"/>
<path d="M5081 1818 c-1 -10 -64 -59 -158 -123 -142 -94 -163 -105 -203 -105
-51 0 -83 -15 -62 -28 9 -6 2 -16 -28 -36 -22 -14 -40 -31 -40 -36 0 -17 38
-30 89 -30 44 0 55 5 97 41 25 22 95 65 155 95 60 30 109 56 109 59 0 12 -256
-125 -267 -144 -7 -11 -30 -25 -52 -32 -41 -12 -111 -5 -111 12 0 8 51 44 75
52 6 2 4 11 -4 20 -12 16 -9 17 39 17 50 0 59 5 209 106 86 59 158 108 159
110 2 1 2 11 -1 21 -4 16 -5 16 -6 1z"/>
<path d="M5180 1755 c-6 -15 -31 -35 -70 -55 -33 -17 -60 -32 -60 -35 0 -3 29
10 65 27 47 24 67 39 74 60 12 35 4 37 -9 3z"/>
<path d="M3726 1628 l4 -98 -47 -2 -48 -1 45 -6 45 -6 -60 -19 c-73 -23 -215
-93 -215 -106 0 -5 29 6 64 25 70 39 214 94 252 97 30 3 31 16 2 20 -21 3 -24
11 -35 98 l-12 95 5 -97z"/>
<path d="M5438 1586 c3 -50 -1 -90 -12 -128 -9 -31 -15 -71 -15 -90 l2 -33 4
30 c2 17 11 52 19 79 15 54 19 202 6 210 -5 3 -7 -28 -4 -68z"/>
<path d="M4941 989 c-83 -476 -110 -653 -102 -658 9 -6 9 -25 0 -79 -11 -64
-16 -74 -58 -115 -31 -31 -62 -50 -96 -60 -31 -9 -51 -20 -53 -31 -3 -14 12
-16 142 -16 l146 0 0 36 c0 19 -5 44 -10 54 -8 14 -2 39 22 100 18 45 38 84
44 87 11 4 101 -25 266 -86 33 -12 81 -21 113 -21 54 0 55 -1 55 -28 0 -16 -9
-37 -20 -47 -11 -10 -18 -20 -15 -23 13 -14 45 34 45 68 0 31 4 38 34 53 l34
16 4 -49 3 -49 -50 -30 c-69 -41 -85 -47 -85 -28 0 14 -8 13 -60 -5 -35 -12
-60 -26 -60 -34 0 -11 28 -14 151 -14 l151 0 -7 37 c-4 21 -13 50 -21 65 -23
45 -18 111 11 138 20 19 25 32 23 69 l-1 46 -6 -45 c-5 -37 -13 -49 -49 -77
-87 -66 -146 -68 -295 -9 -121 47 -209 71 -300 82 -56 6 -58 7 -53 33 3 14 53
298 111 631 58 333 107 613 109 623 2 9 1 17 -2 17 -4 0 -58 -293 -121 -651z
m-13 -669 c29 0 28 -9 -10 -107 -31 -78 -35 -84 -83 -108 -43 -21 -85 -32 -85
-22 0 2 19 24 43 49 39 40 45 53 57 122 12 71 15 77 34 72 12 -3 31 -6 44 -6z"/>
<path d="M4137 1473 c54 -139 153 -417 153 -433 0 -5 -17 -2 -37 7 -25 10 -58
14 -100 11 l-63 -4 -1 96 c-1 52 -5 147 -9 210 -6 97 -7 82 -6 -99 l1 -214
-35 -12 c-49 -17 -48 -46 3 -58 l37 -9 1 -91 c2 -84 3 -87 9 -37 4 30 10 64
15 74 6 14 5 17 -3 12 -7 -4 -12 -2 -12 3 0 19 19 12 34 -11 7 -13 19 -41 26
-63 7 -22 17 -44 22 -50 7 -7 8 -2 3 15 -28 96 -71 155 -120 166 -20 5 -36 14
-36 19 0 6 28 18 63 29 53 16 72 17 122 8 108 -20 153 -78 186 -244 16 -80 44
-328 37 -334 -1 -1 -19 -4 -39 -8 l-37 -7 -56 112 c-31 61 -58 109 -61 106 -3
-3 18 -50 45 -106 28 -55 51 -103 51 -106 0 -3 -22 -5 -50 -5 l-50 0 0 -35 0
-35 98 -1 c53 -1 84 -4 67 -6 -16 -1 -53 -6 -80 -9 l-51 -5 25 -179 25 -180
113 0 c62 0 113 1 114 3 0 1 15 83 33 182 l33 180 -41 6 c-38 6 -37 6 17 7
l57 2 0 35 0 35 -50 0 c-27 0 -50 3 -50 6 0 35 180 333 225 372 29 25 31 35 9
56 -20 20 -76 20 -142 1 -95 -28 -150 -126 -173 -305 -5 -46 -12 -87 -15 -89
-2 -2 -4 24 -4 59 0 154 -51 374 -102 443 -13 18 -41 84 -62 147 -50 151 -176
470 -186 470 -4 0 17 -62 47 -137z m633 -605 c0 -7 -15 -28 -34 -48 -41 -41
-151 -221 -186 -302 -22 -50 -29 -58 -52 -58 -33 0 -34 12 -17 136 28 201 95
284 232 284 38 0 57 -4 57 -12z"/>
<path d="M2720 1394 c0 -3 4 -14 10 -24 9 -17 4 -20 -45 -30 -56 -12 -68 -23
-38 -34 9 -4 102 -11 207 -17 105 -6 202 -14 215 -18 21 -6 17 -12 -62 -84
-71 -65 -90 -77 -119 -77 -19 0 -61 -13 -94 -29 -32 -16 -76 -32 -96 -35 -43
-8 -78 -46 -77 -85 1 -25 1 -25 10 5 16 56 38 66 157 75 59 4 142 10 184 14
l78 5 -54 -78 c-29 -44 -59 -95 -66 -116 -11 -34 -14 -36 -56 -36 -50 0 -50 0
-30 -79 22 -85 36 -235 36 -386 l0 -135 -64 0 c-36 0 -68 4 -71 10 -9 14 -104
522 -112 594 -6 55 -10 39 -54 -230 -27 -159 -50 -329 -53 -379 -3 -86 -3 -88
8 -38 6 28 14 54 17 57 3 3 22 1 43 -5 25 -7 36 -15 32 -24 -2 -7 -7 -31 -10
-52 -5 -32 -3 -30 12 15 9 30 21 52 26 50 5 -2 19 24 31 57 l23 60 12 -62 c8
-39 18 -63 26 -63 8 0 14 -16 17 -42 l4 -43 1 43 2 42 44 0 45 0 4 -42 4 -43
1 43 c1 23 7 42 12 42 25 0 7 422 -24 539 -11 43 -11 51 1 56 31 11 61 4 76
-19 13 -20 28 -25 85 -31 l68 -7 -73 -311 c-40 -172 -73 -328 -73 -348 0 -71
-23 -68 457 -70 449 -3 463 -2 463 38 0 11 -5 9 -18 -7 -15 -18 -24 -21 -49
-16 -41 9 -51 23 -65 89 -10 48 -9 61 7 96 10 23 21 41 24 41 3 0 27 -41 54
-91 26 -51 47 -86 47 -80 0 6 -16 43 -35 81 l-35 69 61 71 c34 39 59 73 56 76
-2 3 -28 -23 -57 -58 -29 -35 -58 -63 -64 -63 -14 0 -67 96 -61 112 2 7 44 65
92 129 l88 118 6 -80 c3 -45 6 27 7 170 l2 248 -61 184 c-33 101 -64 186 -68
188 -4 3 -11 -35 -14 -84 -9 -117 -33 -232 -62 -297 -29 -65 -94 -129 -165
-162 -55 -26 -57 -26 -305 -26 -261 0 -299 4 -309 31 -9 23 11 80 49 139 40
63 144 185 157 185 6 0 8 -14 3 -36 -5 -31 -1 -44 30 -91 l36 -54 27 20 c66
50 62 38 60 172 l-2 124 -5 -122 c-5 -106 -9 -124 -26 -138 -48 -37 -53 -37
-80 2 -22 34 -25 48 -27 143 -1 58 -3 87 -5 64 l-4 -40 -117 -57 c-97 -47
-129 -57 -187 -62 -64 -5 -68 -4 -50 10 22 17 79 35 113 35 15 0 55 29 113 83
50 45 102 85 117 88 18 4 3 8 -48 13 -72 6 -377 26 -412 26 -39 0 -15 19 32
25 52 7 58 13 38 33 -18 18 3 15 59 -9 48 -20 49 -20 191 -3 78 10 142 21 142
24 0 4 -64 -2 -142 -12 l-141 -19 -57 25 c-57 26 -80 31 -80 20z m1139 -267
l51 -158 0 -155 0 -154 -97 -130 c-56 -75 -101 -126 -106 -121 -5 5 -51 87
-101 183 l-93 173 51 28 c69 38 141 110 165 168 26 59 48 160 57 262 4 43 10
75 14 70 5 -4 31 -79 59 -166z m-758 -16 c-28 -35 -37 -39 -81 -43 -28 -1 -50
-2 -50 -1 0 3 152 82 158 83 2 0 -10 -18 -27 -39z m-411 -671 c12 -70 11 -79
-10 -138 -24 -67 -27 -68 -96 -51 -35 9 -44 16 -44 34 0 22 64 425 77 480 5
24 12 0 34 -110 15 -77 33 -174 39 -215z m848 257 c106 -193 204 -391 186
-377 -13 10 -12 6 4 -12 l23 -26 -21 -43 c-18 -34 -21 -53 -16 -93 l5 -51 -18
24 c-10 13 -31 47 -46 76 l-29 52 42 40 c31 30 40 44 35 61 -3 12 -9 19 -15
16 -5 -3 -6 -13 -3 -23 6 -19 -59 -89 -69 -73 -12 19 -216 476 -216 483 0 4
19 10 43 12 23 2 45 4 49 5 3 1 24 -31 46 -71z m-308 56 c0 -5 -27 -145 -60
-313 -33 -168 -60 -316 -60 -330 0 -14 7 -36 16 -48 l16 -23 -88 3 c-126 4
-125 -14 -35 376 39 174 74 323 76 330 5 13 135 18 135 5z m248 -213 c142
-313 132 -276 88 -311 -20 -17 -36 -34 -36 -39 0 -4 29 -36 65 -70 35 -35 62
-67 59 -71 -3 -5 -114 -9 -248 -9 -230 0 -243 1 -264 20 -12 12 -22 32 -22 47
0 14 28 167 61 340 l62 314 69 -3 69 -3 97 -215z"/>
<path d="M5423 1295 c0 -22 2 -30 4 -17 2 12 2 30 0 40 -3 9 -5 -1 -4 -23z"/>
<path d="M1057 1300 c-57 -15 -129 -55 -165 -91 -31 -32 -76 -131 -69 -152 2
-6 14 19 26 54 36 98 105 151 229 178 84 18 232 11 232 -10 0 -5 -17 -16 -37
-24 -44 -18 -89 -58 -109 -96 -12 -24 -54 -197 -54 -223 0 -6 3 -6 9 -1 5 6
17 48 27 95 26 132 60 182 143 211 32 11 47 37 32 52 -14 14 -216 19 -264 7z"/>
<path d="M4605 1283 c-47 -10 -113 -38 -153 -66 -32 -21 -52 -46 -73 -91 -16
-33 -29 -70 -28 -81 0 -11 11 9 24 45 40 108 134 172 275 187 65 6 190 -4 190
-17 0 -4 -24 -19 -54 -34 -73 -36 -101 -80 -126 -196 -12 -51 -23 -97 -26
-101 -2 -4 0 -10 5 -14 10 -6 21 28 41 130 20 97 48 136 125 172 47 21 54 53
15 64 -27 8 -183 9 -215 2z"/>
<path d="M5433 1215 c0 -22 2 -30 4 -17 2 12 2 30 0 40 -3 9 -5 -1 -4 -23z"/>
<path d="M5443 1135 c0 -22 2 -30 4 -17 2 12 2 30 0 40 -3 9 -5 -1 -4 -23z"/>
<path d="M5453 1055 c0 -22 2 -30 4 -17 2 12 2 30 0 40 -3 9 -5 -1 -4 -23z"/>
<path d="M5463 975 c0 -22 2 -30 4 -17 2 12 2 30 0 40 -3 9 -5 -1 -4 -23z"/>
<path d="M5473 895 c0 -22 2 -30 4 -17 2 12 2 30 0 40 -3 9 -5 -1 -4 -23z"/>
<path d="M5483 815 c0 -22 2 -30 4 -17 2 12 2 30 0 40 -3 9 -5 -1 -4 -23z"/>
<path d="M4073 705 c0 -44 2 -61 4 -37 2 23 2 59 0 80 -2 20 -4 1 -4 -43z"/>
<path d="M5493 735 c0 -22 2 -30 4 -17 2 12 2 30 0 40 -3 9 -5 -1 -4 -23z"/>
<path d="M4151 679 c-46 -50 -77 -76 -81 -69 -4 6 -10 -53 -14 -132 -4 -79 -9
-162 -12 -186 l-6 -42 -64 0 -63 0 -4 42 -4 43 -1 -46 c-2 -39 1 -48 18 -52
16 -4 20 -13 20 -44 -1 -21 -7 -49 -15 -63 -8 -14 -14 -42 -15 -62 l0 -38 166
0 c150 0 165 2 162 17 -2 11 -25 23 -68 36 -36 11 -82 31 -102 46 -33 23 -38
31 -38 69 0 29 4 42 14 42 11 0 15 33 21 158 8 178 6 171 102 274 34 37 63 72
63 78 0 5 -1 10 -2 9 -2 0 -36 -36 -77 -80z m-141 -478 c0 -34 6 -44 43 -75
49 -42 42 -44 -38 -13 l-60 23 -3 52 c-3 52 -3 52 27 52 29 0 31 -2 31 -39z"/>
<path d="M5502 660 c0 -19 2 -27 5 -17 2 9 2 25 0 35 -3 9 -5 1 -5 -18z"/>
<path d="M1993 610 c-1 -25 3 -72 7 -105 6 -54 7 -56 7 -15 1 25 -3 72 -7 105
-6 54 -7 56 -7 15z"/>
<path d="M5512 580 c0 -19 2 -27 5 -17 2 9 2 25 0 35 -3 9 -5 1 -5 -18z"/>
<path d="M5523 505 c0 -22 2 -30 4 -17 2 12 2 30 0 40 -3 9 -5 -1 -4 -23z"/>
<path d="M5533 425 c0 -22 2 -30 4 -17 2 12 2 30 0 40 -3 9 -5 -1 -4 -23z"/>
<path d="M2096 113 c-2 -10 -7 -33 -11 -50 l-7 -33 241 0 241 0 29 32 c16 18
27 38 24 44 -2 7 -24 15 -47 18 -51 8 -223 -36 -245 -63 -11 -14 -12 -13 -6 8
7 24 6 24 -39 18 -37 -5 -60 -2 -108 18 -73 30 -66 29 -72 8z"/>
<path d="M2683 101 c-71 -26 -103 -45 -103 -62 0 -5 68 -9 150 -9 l150 0 0 31
c0 17 -5 39 -10 50 -15 27 -96 23 -187 -10z"/>
</g>
</svg>
